<svg aria-hidden="true" style="width:0;height:0;position:absolute;overflow:hidden" xmlns="http://www.w3.org/2000/svg"><defs><symbol id="phone" viewBox="0 0 32 32"><path stroke-linejoin="round" stroke-linecap="round" stroke-width="1.333" d="M26.666 21.337v3.218a2.146 2.146 0 0 1-2.338 2.145 21.239 21.239 0 0 1-9.257-3.293 20.914 20.914 0 0 1-6.436-6.436 21.221 21.221 0 0 1-3.293-9.3 2.144 2.144 0 0 1 2.134-2.338h3.218a2.144 2.144 0 0 1 2.145 1.845c.136 1.03.388 2.041.751 3.014a2.144 2.144 0 0 1-.483 2.263l-1.362 1.362a17.162 17.162 0 0 0 6.436 6.436l1.362-1.362a2.146 2.146 0 0 1 2.263-.483c.973.363 1.984.615 3.014.751a2.144 2.144 0 0 1 1.845 2.177z"/></symbol><symbol id="email" viewBox="0 0 32 32"><path d="M26.971 6.453H5.028c-.485 0-.95.218-1.293.605s-.536.913-.536 1.461v16.525c0 .548.193 1.073.536 1.461s.808.605 1.293.605h21.943c.485 0 .95-.218 1.293-.605s.536-.913.536-1.461V8.519c0-.548-.193-1.073-.536-1.461s-.808-.605-1.293-.605zM24.96 8.519 16 15.522 7.04 8.519h17.92zM5.029 25.044V9.459l10.45 8.17c.153.12.335.184.521.184s.368-.064.521-.184l10.45-8.17v15.585H5.028z"/></symbol><symbol id="telegram" viewBox="0 0 32 32"><path d="M23.593 8.311c-.164-.153-.362-.255-.575-.294s-.43-.013-.63.073L8.751 14.005c-.239.101-.442.285-.577.526s-.194.523-.169.804c.022.281.126.547.297.757s.398.354.649.409l3.465.759v4.781c0 .259.069.511.2.726s.315.382.532.481c.143.064.296.097.451.098s.309-.033.452-.099c.143-.066.273-.163.382-.285l1.921-2.113 2.903 2.823c.214.209.49.325.776.326a1.167 1.167 0 0 0 .878-.422c.139-.166.236-.369.281-.589L23.97 9.591c.049-.231.039-.473-.027-.698s-.187-.427-.35-.583zm-10.727 7.718-3.679-.808L19.5 10.742l-6.634 5.287zm.732 6.013v-3.867l1.862 1.811-1.862 2.056zm6.441.652-6.087-5.915 8.769-6.992-2.682 12.906z"/></symbol><symbol id="facebook" viewBox="0 0 32 32"><path d="M24 16.02C24 11.593 20.416 8 16 8s-8 3.593-8 8.02a8.023 8.023 0 0 0 6.4 7.86v-5.454h-1.6V16.02h1.6v-2.005a2.806 2.806 0 0 1 2.8-2.807h2v2.406h-1.6c-.44 0-.8.361-.8.802v1.604h2.4v2.406h-2.4V24c4.04-.401 7.2-3.818 7.2-7.98z"/><path stroke-width=".667" d="M0 0h32v32H0V0z"/></symbol><symbol id="instagram" viewBox="0 0 32 32"><path d="M15.996 24c-2.185 0-2.443-.012-3.296-.049a5.866 5.866 0 0 1-1.941-.399 4.101 4.101 0 0 1-2.337-2.334 5.85 5.85 0 0 1-.372-1.94C8 18.428 8 18.15 8 15.984c0-2.188.012-2.444.05-3.291a5.832 5.832 0 0 1 .372-1.937 4.09 4.09 0 0 1 2.339-2.335 5.825 5.825 0 0 1 1.94-.373C13.549 8 13.828 8 15.995 8c2.203 0 2.456.012 3.296.048a5.81 5.81 0 0 1 1.946.373 4.107 4.107 0 0 1 2.339 2.334c.237.63.364 1.295.374 1.967.05.85.05 1.128.05 3.292s-.012 2.448-.05 3.289a5.837 5.837 0 0 1-.373 1.942 4.103 4.103 0 0 1-2.34 2.335 5.912 5.912 0 0 1-1.942.372c-.848.049-1.126.049-3.3.049zm-.031-14.596c-2.173 0-2.399.011-3.247.049-.507.007-1.009.1-1.484.276a2.652 2.652 0 0 0-1.526 1.519 4.423 4.423 0 0 0-.276 1.497c-.047.86-.047 1.085-.047 3.24 0 2.129.008 2.387.047 3.242.008.506.101 1.007.276 1.481.272.698.826 1.25 1.527 1.518.475.177.976.27 1.483.276.86.05 1.087.05 3.247.05 2.179 0 2.405-.011 3.246-.05a4.398 4.398 0 0 0 1.484-.276 2.66 2.66 0 0 0 1.519-1.516c.178-.479.271-.986.276-1.497h.01c.038-.848.038-1.074.038-3.241s-.01-2.395-.048-3.242a4.48 4.48 0 0 0-.276-1.48 2.663 2.663 0 0 0-1.519-1.519 4.398 4.398 0 0 0-1.484-.276c-.859-.049-1.084-.049-3.246-.049zm.031 10.678a4.108 4.108 0 0 1-3.796-2.53 4.1 4.1 0 0 1 2.991-5.594 4.11 4.11 0 0 1 4.91 4.022 4.113 4.113 0 0 1-4.104 4.102zm0-6.766a2.667 2.667 0 0 0-2.615 3.181 2.667 2.667 0 0 0 2.094 2.091 2.67 2.67 0 0 0 2.736-1.131 2.656 2.656 0 0 0-.333-3.359 2.668 2.668 0 0 0-1.883-.781zm4.264-.632a.957.957 0 0 1-.671-1.634.96.96 0 0 1 1.354.005.956.956 0 0 1-.683 1.63z"/></symbol></defs></svg>