<svg aria-hidden="true" style="width:0;height:0;position:absolute;overflow:hidden" xmlns="http://www.w3.org/2000/svg"><defs><symbol id="phone" viewBox="0 0 32 32"><path stroke-linejoin="round" stroke-linecap="round" stroke-width="1.333" d="M26.666 21.337v3.218a2.146 2.146 0 0 1-2.338 2.145 21.239 21.239 0 0 1-9.257-3.293 20.914 20.914 0 0 1-6.436-6.436 21.221 21.221 0 0 1-3.293-9.3 2.144 2.144 0 0 1 2.134-2.338h3.218a2.144 2.144 0 0 1 2.145 1.845c.136 1.03.388 2.041.751 3.014a2.144 2.144 0 0 1-.483 2.263l-1.362 1.362a17.162 17.162 0 0 0 6.436 6.436l1.362-1.362a2.146 2.146 0 0 1 2.263-.483c.973.363 1.984.615 3.014.751a2.144 2.144 0 0 1 1.845 2.177z"/></symbol><symbol id="email" viewBox="0 0 32 32"><path d="M26.971 6.453H5.028c-.485 0-.95.218-1.293.605s-.536.913-.536 1.461v16.525c0 .548.193 1.073.536 1.461s.808.605 1.293.605h21.943c.485 0 .95-.218 1.293-.605s.536-.913.536-1.461V8.519c0-.548-.193-1.073-.536-1.461s-.808-.605-1.293-.605zM24.96 8.519 16 15.522 7.04 8.519h17.92zM5.029 25.044V9.459l10.45 8.17c.153.12.335.184.521.184s.368-.064.521-.184l10.45-8.17v15.585H5.028z"/></symbol><symbol id="telegram" viewBox="0 0 32 32"><path d="M23.593 8.311c-.164-.153-.362-.255-.575-.294s-.43-.013-.63.073L8.751 14.005c-.239.101-.442.285-.577.526s-.194.523-.169.804c.022.281.126.547.297.757s.398.354.649.409l3.465.759v4.781c0 .259.069.511.2.726s.315.382.532.481c.143.064.296.097.451.098s.309-.033.452-.099c.143-.066.273-.163.382-.285l1.921-2.113 2.903 2.823c.214.209.49.325.776.326a1.167 1.167 0 0 0 .878-.422c.139-.166.236-.369.281-.589L23.97 9.591c.049-.231.039-.473-.027-.698s-.187-.427-.35-.583zm-10.727 7.718-3.679-.808L19.5 10.742l-6.634 5.287zm.732 6.013v-3.867l1.862 1.811-1.862 2.056zm6.441.652-6.087-5.915 8.769-6.992-2.682 12.906z"/></symbol><symbol id="facebook" viewBox="0 0 32 32"><path d="M24 16.02C24 11.593 20.416 8 16 8s-8 3.593-8 8.02a8.023 8.023 0 0 0 6.4 7.86v-5.454h-1.6V16.02h1.6v-2.005a2.806 2.806 0 0 1 2.8-2.807h2v2.406h-1.6c-.44 0-.8.361-.8.802v1.604h2.4v2.406h-2.4V24c4.04-.401 7.2-3.818 7.2-7.98z"/></symbol><symbol id="instagram" viewBox="0 0 32 32"><path d="M15.996 24c-2.185 0-2.443-.012-3.296-.049a5.866 5.866 0 0 1-1.941-.399 4.101 4.101 0 0 1-2.337-2.334 5.85 5.85 0 0 1-.372-1.94C8 18.428 8 18.15 8 15.984c0-2.188.012-2.444.05-3.291a5.832 5.832 0 0 1 .372-1.937 4.09 4.09 0 0 1 2.339-2.335 5.825 5.825 0 0 1 1.94-.373C13.549 8 13.828 8 15.995 8c2.203 0 2.456.012 3.296.048a5.81 5.81 0 0 1 1.946.373 4.107 4.107 0 0 1 2.339 2.334c.237.63.364 1.295.374 1.967.05.85.05 1.128.05 3.292s-.012 2.448-.05 3.289a5.837 5.837 0 0 1-.373 1.942 4.103 4.103 0 0 1-2.34 2.335 5.912 5.912 0 0 1-1.942.372c-.848.049-1.126.049-3.3.049zm-.031-14.596c-2.173 0-2.399.011-3.247.049-.507.007-1.009.1-1.484.276a2.652 2.652 0 0 0-1.526 1.519 4.423 4.423 0 0 0-.276 1.497c-.047.86-.047 1.085-.047 3.24 0 2.129.008 2.387.047 3.242.008.506.101 1.007.276 1.481.272.698.826 1.25 1.527 1.518.475.177.976.27 1.483.276.86.05 1.087.05 3.247.05 2.179 0 2.405-.011 3.246-.05a4.398 4.398 0 0 0 1.484-.276 2.66 2.66 0 0 0 1.519-1.516c.178-.479.271-.986.276-1.497h.01c.038-.848.038-1.074.038-3.241s-.01-2.395-.048-3.242a4.48 4.48 0 0 0-.276-1.48 2.663 2.663 0 0 0-1.519-1.519 4.398 4.398 0 0 0-1.484-.276c-.859-.049-1.084-.049-3.246-.049zm.031 10.678a4.108 4.108 0 0 1-3.796-2.53 4.1 4.1 0 0 1 2.991-5.594 4.11 4.11 0 0 1 4.91 4.022 4.113 4.113 0 0 1-4.104 4.102zm0-6.766a2.667 2.667 0 0 0-2.615 3.181 2.667 2.667 0 0 0 2.094 2.091 2.67 2.67 0 0 0 2.736-1.131 2.656 2.656 0 0 0-.333-3.359 2.668 2.668 0 0 0-1.883-.781zm4.264-.632a.957.957 0 0 1-.671-1.634.96.96 0 0 1 1.354.005.956.956 0 0 1-.683 1.63z"/></symbol><symbol id="smile-heart" viewBox="0 0 32 32"><path d="M12.998 28.904c-2.722 0-5.332-1.107-7.257-3.079s-3.006-4.644-3.006-7.432c0-2.787 1.081-5.461 3.006-7.432s4.535-3.078 7.257-3.078c2.722 0 5.332 1.107 7.257 3.078s3.006 4.645 3.006 7.432c0 2.788-1.081 5.461-3.006 7.432s-4.535 3.079-7.257 3.079zm0-2.628c1.011 0 2.012-.204 2.946-.6s1.783-.977 2.497-1.709c.715-.732 1.282-1.601 1.669-2.557s.586-1.981.586-3.017c0-1.035-.199-2.06-.586-3.017s-.954-1.825-1.669-2.557c-.715-.732-1.563-1.313-2.497-1.709s-1.935-.6-2.946-.6c-2.041 0-3.999.831-5.443 2.309S5.3 16.302 5.3 18.393c0 2.091.811 4.096 2.255 5.574s3.401 2.309 5.443 2.309zm3.849-6.569c0 1.045-.405 2.048-1.127 2.787s-1.701 1.154-2.721 1.154c-1.021 0-2-.415-2.721-1.154s-1.127-1.742-1.127-2.787h7.697zm-6.415-2.627c.34 0 .667-.138.907-.385a1.335 1.335 0 0 0 0-1.858 1.27 1.27 0 0 0-.907-.385c-.34 0-.667.138-.907.385a1.335 1.335 0 0 0 0 1.858c.241.246.567.385.907.385zm5.132 0c-.34 0-.667-.138-.907-.385a1.335 1.335 0 0 1 0-1.858c.241-.246.567-.385.907-.385s.667.138.907.385c.241.246.376.581.376.929s-.135.683-.376.929a1.27 1.27 0 0 1-.907.385zm8.499-6.569c-1.061-.236-4.33-2.089-4.33-5.419 0-.517.159-1.021.454-1.44s.712-.733 1.191-.897.996-.169 1.478-.014c.482.154.904.46 1.207.873.303-.414.725-.719 1.207-.873s.999-.149 1.478.014.895.477 1.191.897.454.923.454 1.44c0 3.331-3.269 5.183-4.33 5.419z"/></symbol><symbol id="btn-prev" viewBox="0 0 82 16"><path d="M.293 7.293a1 1 0 0 0 0 1.414l6.364 6.364a1 1 0 0 0 1.414-1.414L2.414 8l5.657-5.657A1 1 0 0 0 6.657.93L.293 7.293ZM82 7H1v2h81V7Z"/></symbol><symbol id="btn-next" viewBox="0 0 82 16"><path d="M81.707 8.707a1 1 0 0 0 0-1.414L75.343.929a1 1 0 1 0-1.414 1.414L79.586 8l-5.657 5.657a1 1 0 0 0 1.414 1.414l6.364-6.364ZM0 9h81V7H0v2Z"/></symbol></defs></svg>