<svg aria-hidden="true" style="position: absolute; width: 0; height: 0; overflow: hidden;" version="1.1" xmlns="http://www.w3.org/2000/svg" xmlns:xlink="http://www.w3.org/1999/xlink">
<defs>

<symbol id="phone" viewBox="0 0 32 32">
<path stroke-linejoin="round" stroke-linecap="round" stroke-miterlimit="4" stroke-width="1.3333" d="M26.666 21.337v3.218c0.002 0.604-0.25 1.181-0.695 1.589s-1.042 0.61-1.643 0.556c-3.301-0.359-6.471-1.487-9.257-3.293-2.592-1.647-4.789-3.844-6.436-6.436-1.813-2.798-2.941-5.984-3.293-9.3-0.054-0.6 0.146-1.195 0.552-1.639s0.98-0.698 1.582-0.699h3.218c1.077-0.011 1.995 0.779 2.145 1.845 0.136 1.030 0.388 2.041 0.751 3.014 0.295 0.784 0.106 1.668-0.483 2.263l-1.362 1.362c1.527 2.685 3.75 4.909 6.436 6.436l1.362-1.362c0.596-0.589 1.479-0.777 2.263-0.483 0.973 0.363 1.984 0.615 3.014 0.751 1.079 0.152 1.872 1.088 1.845 2.177z"></path>
</symbol>

<symbol id="email" viewBox="0 0 32 32">
<path d="M26.971 6.453h-21.943c-0.485 0-0.95 0.218-1.293 0.605s-0.536 0.913-0.536 1.461v16.525c0 0.548 0.193 1.073 0.536 1.461s0.808 0.605 1.293 0.605h21.943c0.485 0 0.95-0.218 1.293-0.605s0.536-0.913 0.536-1.461v-16.525c0-0.548-0.193-1.073-0.536-1.461s-0.808-0.605-1.293-0.605zM24.96 8.519l-8.96 7.003-8.96-7.003h17.92zM5.029 25.044v-15.585l10.45 8.17c0.153 0.12 0.335 0.184 0.521 0.184s0.368-0.064 0.521-0.184l10.45-8.17v15.585h-21.943z"></path>
</symbol>

<symbol id="telegram" viewBox="0 0 32 32">
<path d="M23.593 8.311c-0.164-0.153-0.362-0.255-0.575-0.294s-0.43-0.013-0.63 0.073l-13.637 5.915c-0.239 0.101-0.442 0.285-0.577 0.526s-0.194 0.523-0.169 0.804c0.022 0.281 0.126 0.547 0.297 0.757s0.398 0.354 0.649 0.409l3.465 0.759v4.781c-0 0.259 0.069 0.511 0.2 0.726s0.315 0.382 0.532 0.481c0.143 0.064 0.296 0.097 0.451 0.098s0.309-0.033 0.452-0.099c0.143-0.066 0.273-0.163 0.382-0.285l1.921-2.113 2.903 2.823c0.214 0.209 0.49 0.325 0.776 0.326 0.126 0.003 0.251-0.019 0.369-0.065 0.195-0.068 0.37-0.191 0.509-0.357s0.236-0.369 0.281-0.589l2.778-13.396c0.049-0.231 0.039-0.473-0.027-0.698s-0.187-0.427-0.35-0.583zM12.866 16.029l-3.679-0.808 10.313-4.479-6.634 5.287zM13.598 22.042v-3.867l1.862 1.811-1.862 2.056zM20.039 22.694l-6.087-5.915 8.769-6.992-2.682 12.906z"></path>
</symbol>

<symbol id="facebook" viewBox="0 0 32 32">
<path d="M24 16.020c0-4.427-3.584-8.020-8-8.020s-8 3.593-8 8.020c0 3.882 2.752 7.114 6.4 7.86v-5.454h-1.6v-2.406h1.6v-2.005c0-1.548 1.256-2.807 2.8-2.807h2v2.406h-1.6c-0.44 0-0.8 0.361-0.8 0.802v1.604h2.4v2.406h-2.4v5.574c4.040-0.401 7.2-3.818 7.2-7.98z"></path>
</symbol>

<symbol id="instagram" viewBox="0 0 32 32">
<path d="M15.996 24c-2.185 0-2.443-0.012-3.296-0.049-0.665-0.022-1.322-0.157-1.941-0.399-0.53-0.206-1.012-0.52-1.414-0.922s-0.716-0.883-0.923-1.412c-0.233-0.621-0.359-1.277-0.372-1.94-0.050-0.85-0.050-1.128-0.050-3.294 0-2.188 0.012-2.444 0.050-3.291 0.013-0.662 0.139-1.317 0.372-1.937 0.206-0.53 0.52-1.012 0.923-1.414s0.885-0.716 1.416-0.921c0.621-0.234 1.277-0.36 1.94-0.373 0.848-0.048 1.127-0.048 3.294-0.048 2.203 0 2.456 0.012 3.296 0.048 0.664 0.012 1.324 0.138 1.946 0.373 0.531 0.206 1.013 0.519 1.416 0.921s0.717 0.883 0.923 1.413c0.237 0.63 0.364 1.295 0.374 1.967 0.050 0.85 0.050 1.128 0.050 3.292s-0.012 2.448-0.050 3.289c-0.013 0.664-0.139 1.32-0.373 1.942-0.207 0.53-0.521 1.011-0.924 1.413s-0.885 0.716-1.416 0.922c-0.622 0.232-1.278 0.358-1.942 0.372-0.848 0.049-1.126 0.049-3.3 0.049zM15.965 9.404c-2.173 0-2.399 0.011-3.247 0.049-0.507 0.007-1.009 0.1-1.484 0.276-0.347 0.133-0.661 0.336-0.924 0.598s-0.468 0.575-0.602 0.921c-0.178 0.479-0.271 0.986-0.276 1.497-0.047 0.86-0.047 1.085-0.047 3.24 0 2.129 0.008 2.387 0.047 3.242 0.008 0.506 0.101 1.007 0.276 1.481 0.272 0.698 0.826 1.25 1.527 1.518 0.475 0.177 0.976 0.27 1.483 0.276 0.86 0.050 1.087 0.050 3.247 0.050 2.179 0 2.405-0.011 3.246-0.050 0.507-0.006 1.009-0.099 1.484-0.276 0.345-0.134 0.658-0.337 0.919-0.598s0.466-0.573 0.6-0.918c0.178-0.479 0.271-0.986 0.276-1.497h0.010c0.038-0.848 0.038-1.074 0.038-3.241s-0.010-2.395-0.048-3.242c-0.008-0.505-0.101-1.006-0.276-1.48-0.134-0.345-0.338-0.658-0.599-0.919s-0.575-0.466-0.92-0.6c-0.475-0.177-0.977-0.27-1.484-0.276-0.859-0.049-1.084-0.049-3.246-0.049zM15.996 20.082c-0.812 0.001-1.607-0.24-2.282-0.69s-1.203-1.091-1.514-1.84c-0.311-0.749-0.393-1.574-0.235-2.37s0.549-1.527 1.123-2.101c0.574-0.574 1.306-0.965 2.103-1.123s1.623-0.078 2.373 0.233c0.751 0.31 1.392 0.836 1.844 1.51s0.693 1.467 0.693 2.279c-0.001 1.087-0.434 2.129-1.203 2.898s-1.812 1.202-2.901 1.204zM15.996 13.316c-0.527 0-1.042 0.156-1.481 0.449s-0.78 0.708-0.982 1.194c-0.202 0.486-0.255 1.021-0.152 1.538s0.357 0.99 0.729 1.363 0.848 0.626 1.365 0.728c0.517 0.103 1.053 0.050 1.54-0.151s0.903-0.543 1.196-0.98 0.449-0.952 0.449-1.479c-0.002-0.705-0.283-1.381-0.782-1.88s-1.176-0.78-1.883-0.781zM20.26 12.684c-0.126-0-0.25-0.026-0.366-0.074s-0.221-0.119-0.31-0.208c-0.179-0.18-0.279-0.424-0.278-0.677s0.103-0.497 0.283-0.675 0.424-0.279 0.678-0.278c0.254 0.001 0.497 0.103 0.676 0.283s0.279 0.424 0.278 0.677c-0.001 0.254-0.103 0.497-0.283 0.675s-0.424 0.279-0.678 0.278z"></path>
</symbol>

<symbol id="smile-heart" viewBox="0 0 32 32">
<path d="M12.998 28.904c-2.722 0-5.332-1.107-7.257-3.079s-3.006-4.644-3.006-7.432c0-2.787 1.081-5.461 3.006-7.432s4.535-3.078 7.257-3.078c2.722 0 5.332 1.107 7.257 3.078s3.006 4.645 3.006 7.432c0 2.788-1.081 5.461-3.006 7.432s-4.535 3.079-7.257 3.079zM12.998 26.276c1.011 0 2.012-0.204 2.946-0.6s1.783-0.977 2.497-1.709c0.715-0.732 1.282-1.601 1.669-2.557s0.586-1.981 0.586-3.017c0-1.035-0.199-2.060-0.586-3.017s-0.954-1.825-1.669-2.557c-0.715-0.732-1.563-1.313-2.497-1.709s-1.935-0.6-2.946-0.6c-2.041 0-3.999 0.831-5.443 2.309s-2.255 3.483-2.255 5.574c0 2.091 0.811 4.096 2.255 5.574s3.401 2.309 5.443 2.309zM16.847 19.707c0 1.045-0.405 2.048-1.127 2.787s-1.701 1.154-2.721 1.154c-1.021 0-2-0.415-2.721-1.154s-1.127-1.742-1.127-2.787h7.697zM10.432 17.080c0.34 0 0.667-0.138 0.907-0.385s0.376-0.581 0.376-0.929c0-0.348-0.135-0.683-0.376-0.929s-0.567-0.385-0.907-0.385c-0.34 0-0.667 0.138-0.907 0.385s-0.376 0.581-0.376 0.929c0 0.348 0.135 0.683 0.376 0.929s0.567 0.385 0.907 0.385zM15.564 17.080c-0.34 0-0.667-0.138-0.907-0.385s-0.376-0.581-0.376-0.929 0.135-0.683 0.376-0.929c0.241-0.246 0.567-0.385 0.907-0.385s0.667 0.138 0.907 0.385c0.241 0.246 0.376 0.581 0.376 0.929s-0.135 0.683-0.376 0.929c-0.241 0.246-0.567 0.385-0.907 0.385zM24.063 10.511c-1.061-0.236-4.33-2.089-4.33-5.419 0-0.517 0.159-1.021 0.454-1.44s0.712-0.733 1.191-0.897 0.996-0.169 1.478-0.014c0.482 0.154 0.904 0.46 1.207 0.873 0.303-0.414 0.725-0.719 1.207-0.873s0.999-0.149 1.478 0.014c0.479 0.163 0.895 0.477 1.191 0.897s0.454 0.923 0.454 1.44c0 3.331-3.269 5.183-4.33 5.419z"></path>
</symbol>

</defs>
</svg>
