<svg width="24" height="25" viewBox="0 0 24 25" fill="none" xmlns="http://www.w3.org/2000/svg">
<path d="M20.5714 5.0415H3.42857C3.04969 5.0415 2.68633 5.21153 2.41842 5.51417C2.15051 5.81682 2 6.22729 2 6.6553V19.5656C2 19.9936 2.15051 20.4041 2.41842 20.7068C2.68633 21.0094 3.04969 21.1794 3.42857 21.1794H20.5714C20.9503 21.1794 21.3137 21.0094 21.5816 20.7068C21.8495 20.4041 22 19.9936 22 19.5656V6.6553C22 6.22729 21.8495 5.81682 21.5816 5.51417C21.3137 5.21153 20.9503 5.0415 20.5714 5.0415ZM19 6.6553L12 12.1261L5 6.6553H19ZM3.42857 19.5656V7.38957L11.5929 13.7721C11.7124 13.8658 11.8545 13.916 12 13.916C12.1455 13.916 12.2876 13.8658 12.4071 13.7721L20.5714 7.38957V19.5656H3.42857Z" fill="#F1F1F1"/>
</svg>
