<svg width="25" height="25" viewBox="0 0 25 25" fill="none" xmlns="http://www.w3.org/2000/svg">
<path fill-rule="evenodd" clip-rule="evenodd" d="M10.1546 22.5812C8.02805 22.5812 5.98859 21.716 4.48489 20.1761C2.98119 18.6362 2.13641 16.5476 2.13641 14.3698C2.13641 12.1921 2.98119 10.1035 4.48489 8.56356C5.98859 7.02364 8.02805 6.15852 10.1546 6.15852C12.2812 6.15852 14.3206 7.02364 15.8243 8.56356C17.328 10.1035 18.1728 12.1921 18.1728 14.3698C18.1728 16.5476 17.328 18.6362 15.8243 20.1761C14.3206 21.716 12.2812 22.5812 10.1546 22.5812ZM10.1546 20.5283C10.9443 20.5283 11.7263 20.369 12.4559 20.0595C13.1855 19.75 13.8485 19.2964 14.4069 18.7245C14.9653 18.1527 15.4083 17.4738 15.7105 16.7266C16.0127 15.9794 16.1682 15.1786 16.1682 14.3698C16.1682 13.5611 16.0127 12.7603 15.7105 12.0131C15.4083 11.2659 14.9653 10.587 14.4069 10.0151C13.8485 9.44326 13.1855 8.98963 12.4559 8.68013C11.7263 8.37064 10.9443 8.21135 10.1546 8.21135C8.55969 8.21135 7.03009 8.86019 5.90232 10.0151C4.77454 11.1701 4.14096 12.7365 4.14096 14.3698C4.14096 16.0032 4.77454 17.5696 5.90232 18.7245C7.03009 19.8795 8.55969 20.5283 10.1546 20.5283ZM13.1614 15.3963C13.1614 16.2129 12.8446 16.9961 12.2807 17.5736C11.7169 18.1511 10.9521 18.4755 10.1546 18.4755C9.35715 18.4755 8.59235 18.1511 8.02846 17.5736C7.46457 16.9961 7.14778 16.2129 7.14778 15.3963H13.1614ZM8.15006 13.3434C8.41588 13.3434 8.67081 13.2353 8.85877 13.0428C9.04673 12.8503 9.15233 12.5892 9.15233 12.317C9.15233 12.0448 9.04673 11.7837 8.85877 11.5912C8.67081 11.3987 8.41588 11.2906 8.15006 11.2906C7.88424 11.2906 7.62931 11.3987 7.44134 11.5912C7.25338 11.7837 7.14778 12.0448 7.14778 12.317C7.14778 12.5892 7.25338 12.8503 7.44134 13.0428C7.62931 13.2353 7.88424 13.3434 8.15006 13.3434ZM12.1592 13.3434C11.8933 13.3434 11.6384 13.2353 11.4504 13.0428C11.2625 12.8503 11.1569 12.5892 11.1569 12.317C11.1569 12.0448 11.2625 11.7837 11.4504 11.5912C11.6384 11.3987 11.8933 11.2906 12.1592 11.2906C12.425 11.2906 12.6799 11.3987 12.8679 11.5912C13.0558 11.7837 13.1614 12.0448 13.1614 12.317C13.1614 12.5892 13.0558 12.8503 12.8679 13.0428C12.6799 13.2353 12.425 13.3434 12.1592 13.3434ZM18.7992 8.21135C17.9703 8.02659 15.4165 6.57935 15.4165 3.97738C15.4165 3.57346 15.5406 3.17977 15.7713 2.85209C16.0019 2.52441 16.3273 2.27935 16.7015 2.15162C17.0757 2.02388 17.4797 2.01996 17.8561 2.1404C18.2326 2.26083 18.5626 2.49953 18.7992 2.82267C19.0359 2.49953 19.3658 2.26083 19.7423 2.1404C20.1188 2.01996 20.5227 2.02388 20.8969 2.15162C21.2711 2.27935 21.5965 2.52441 21.8272 2.85209C22.0578 3.17977 22.1819 3.57346 22.1819 3.97738C22.1819 6.57935 19.6281 8.02659 18.7992 8.21135Z" fill="#CFA878"/>
</svg>
