<svg width="48" height="48" viewBox="0 0 48 48" fill="none" xmlns="http://www.w3.org/2000/svg">
<path d="M35.389 12.4671C35.1431 12.2369 34.8453 12.0847 34.5272 12.0265C34.2092 11.9683 33.8828 12.0064 33.5828 12.1367L13.1275 21.0088C12.7687 21.1598 12.4648 21.4368 12.2625 21.7972C12.0603 22.1576 11.971 22.5815 12.0083 23.0035C12.0416 23.4253 12.1978 23.8239 12.4535 24.1394C12.7092 24.4549 13.0507 24.6704 13.4266 24.7534L18.6236 25.8915V33.0627C18.6234 33.4506 18.7276 33.8299 18.9229 34.1523C19.1182 34.4748 19.3959 34.7259 19.7206 34.8738C19.9355 34.9693 20.1649 35.0191 20.3965 35.0206C20.6294 35.0215 20.8601 34.9711 21.0751 34.8724C21.2901 34.7736 21.4851 34.6285 21.6487 34.4455L24.5297 31.276L28.8845 35.5101C29.206 35.8233 29.6194 35.9972 30.048 35.9996C30.2365 36.0039 30.4242 35.9708 30.6021 35.9017C30.8945 35.7996 31.1577 35.6148 31.3656 35.3659C31.5736 35.1169 31.7191 34.8123 31.7877 34.4822L35.9541 14.3883C36.027 14.0416 36.0128 13.6795 35.9133 13.341C35.8137 13.0025 35.6324 12.7003 35.389 12.4671ZM19.2995 24.0437L13.7812 22.8322L29.2502 16.1138L19.2995 24.0437ZM20.3965 33.0627V27.2621L23.1889 29.9788L20.3965 33.0627ZM30.0591 34.0416L20.9284 25.1695L34.0815 14.682L30.0591 34.0416Z" fill="#F1F1F1"/>
</svg>
