<svg width="48" height="48" viewBox="0 0 48 48" fill="none" xmlns="http://www.w3.org/2000/svg">
<path d="M23.9933 36C20.7152 36 20.3287 35.9827 19.0494 35.9268C18.0518 35.8941 17.0671 35.6916 16.1377 35.328C15.3424 35.0189 14.6201 34.5481 14.0168 33.9454C13.4134 33.3427 12.9422 32.6213 12.633 31.827C12.2829 30.8956 12.0941 29.9115 12.0746 28.9168C12 27.642 12 27.2242 12 23.976C12 20.6933 12.0173 20.31 12.0746 19.0393C12.0945 18.0459 12.2833 17.0632 12.633 16.1331C12.9418 15.3378 13.4134 14.6155 14.0175 14.0125C14.6217 13.4094 15.3451 12.9388 16.1417 12.6307C17.0727 12.2797 18.0571 12.0907 19.0521 12.0719C20.3247 12 20.7431 12 23.9933 12C27.2982 12 27.678 12.0173 28.9373 12.0719C29.934 12.0905 30.9228 12.2794 31.8556 12.6307C32.652 12.9392 33.3753 13.4099 33.9794 14.0129C34.5835 14.6159 35.0551 15.338 35.3644 16.1331C35.7202 17.0778 35.9107 18.0758 35.9254 19.0832C36 20.358 36 20.7745 36 24.0213C36 27.2681 35.9813 27.6939 35.9254 28.9541C35.9055 29.9497 35.7162 30.9347 35.3657 31.8669C35.0557 32.6618 34.5836 33.3836 33.9793 33.9865C33.3751 34.5894 32.6519 35.0603 31.8556 35.3693C30.9228 35.7179 29.938 35.9069 28.9426 35.9268C27.67 36 27.2529 36 23.9933 36ZM23.948 14.1065C20.6885 14.1065 20.35 14.1224 19.0774 14.1796C18.3174 14.1896 17.5646 14.3295 16.852 14.5935C16.3322 14.7924 15.8599 15.098 15.4656 15.4903C15.0712 15.8827 14.7636 16.3532 14.5626 16.8716C14.2961 17.5902 14.1561 18.35 14.1481 19.1164C14.0775 20.4059 14.0775 20.7438 14.0775 23.976C14.0775 27.1697 14.0895 27.5569 14.1481 28.8383C14.1601 29.5968 14.3001 30.3486 14.5626 31.0605C14.9704 32.1078 15.8019 32.9355 16.8533 33.3373C17.5651 33.6029 18.3176 33.743 19.0774 33.7512C20.3674 33.8257 20.7072 33.8257 23.948 33.8257C27.2169 33.8257 27.5554 33.8097 28.8173 33.7512C29.5774 33.742 30.3303 33.602 31.0428 33.3373C31.5598 33.1368 32.0294 32.8311 32.4217 32.4396C32.814 32.0481 33.1204 31.5794 33.3215 31.0632C33.588 30.3446 33.7279 29.5835 33.7359 28.817H33.7506C33.8079 27.5449 33.8079 27.2056 33.8079 23.9548C33.8079 20.7039 33.7932 20.3619 33.7359 19.0912C33.7239 18.3333 33.5838 17.5829 33.3215 16.8716C33.1209 16.3547 32.8147 15.8852 32.4223 15.4929C32.03 15.1007 31.5602 14.7944 31.0428 14.5935C30.3304 14.3283 29.5775 14.1882 28.8173 14.1796C27.5287 14.1065 27.1916 14.1065 23.948 14.1065ZM23.9933 30.1224C22.7748 30.1232 21.5834 29.7631 20.5698 29.0877C19.5562 28.4123 18.7659 27.4519 18.299 26.328C17.8321 25.204 17.7094 23.9671 17.9466 22.7735C18.1837 21.58 18.77 20.4835 19.6313 19.6227C20.4925 18.7619 21.5901 18.1755 22.7852 17.9377C23.9802 17.6998 25.2191 17.8213 26.345 18.2865C27.471 18.7518 28.4335 19.5401 29.1107 20.5516C29.788 21.5632 30.1497 22.7526 30.1499 23.9694C30.1478 25.5997 29.4987 27.1627 28.3447 28.316C27.1907 29.4693 25.626 30.1189 23.9933 30.1224ZM23.9933 19.9747C23.2027 19.9747 22.4297 20.2088 21.7723 20.6475C21.1149 21.0861 20.6025 21.7096 20.2999 22.4391C19.9973 23.1685 19.9181 23.9712 20.0724 24.7455C20.2266 25.5199 20.6074 26.2312 21.1665 26.7895C21.7256 27.3478 22.4379 27.728 23.2134 27.882C23.9889 28.0361 24.7927 27.957 25.5232 27.6549C26.2537 27.3527 26.8781 26.8411 27.3174 26.1846C27.7567 25.5281 27.9911 24.7563 27.9911 23.9667C27.9887 22.9087 27.5667 21.8948 26.8175 21.1467C26.0683 20.3986 25.0529 19.9772 23.9933 19.9747ZM30.3898 19.0259C30.2011 19.0252 30.0145 18.9875 29.8405 18.9147C29.6664 18.842 29.5085 18.7357 29.3756 18.602C29.1072 18.332 28.9572 17.9666 28.9586 17.5862C28.96 17.2057 29.1127 16.8414 29.3831 16.5734C29.6535 16.3054 30.0195 16.1556 30.4004 16.157C30.7814 16.1584 31.1463 16.3109 31.4147 16.5809C31.6831 16.8509 31.8331 17.2164 31.8317 17.5968C31.8302 17.9773 31.6775 18.3416 31.4071 18.6096C31.1367 18.8776 30.7708 19.0274 30.3898 19.0259Z" fill="#F1F1F1"/>
</svg>
